<?xml version="1.0"?>
<svg width="580" height="400" xmlns="http://www.w3.org/2000/svg">
 <!-- Created with Method Draw - http://github.com/duopixel/Method-Draw/ -->
 <defs>
  <filter id="svg_7_blur">
   <feGaussianBlur stdDeviation="0.3" in="SourceGraphic"/>
  </filter>
 </defs>
 <g>
  <title>background</title>
  <rect x="-1" y="-1" width="582" height="402" id="canvas_background" fill="#fff"/>
  <g id="canvasGrid" display="none">
   <rect id="svg_4" width="100%" height="100%" x="0" y="0" stroke-width="0" fill="url(#gridpattern)"/>
  </g>
 </g>
 <g>
  <title>Layer 1</title>
  <text fill="#000000" x="144.998326" y="189.333439" id="svg_1" font-size="20" font-family="'Palatino Linotype', 'Book Antiqua', Palatino, serif" text-anchor="left" xml:space="preserve" transform="matrix(4.947679337036835,0,0,4.872796867514828,-511.70468019177224,-686.0800158058394) " stroke="#000" font-weight="bold" opacity="0.75">&#29233;&#31616;&#21382;</text>
  <path stroke="#000" fill="#000000" stroke-width="0" stroke-opacity="null" fill-opacity="null" d="m160.37265,148.057709c-9.968613,-9.16507 -20.72197,-16.505615 -29.539139,-17.504776c-0.479736,-0.066833 -0.977051,-0.108047 -1.504761,-0.115845l-58.040413,0c-0.924561,0 -1.840149,0.338623 -2.48999,0.974655c-0.649841,0.619324 -1.029236,1.478134 -1.029236,2.36145l0,139.34433c0,0.875519 0.357605,1.717773 1.029236,2.353333c0.666931,0.627594 1.547913,0.966217 2.48999,0.966217l104.961464,0c0.924561,0 1.814178,-0.331329 2.481552,-0.966217c0.666916,-0.635559 1.037766,-1.470306 1.037766,-2.353333l0,-92.725815c-0.205078,-10.759018 -9.109314,-22.50061 -19.396469,-32.334zm12.345215,121.707764l-97.919273,0l0,-132.672882l54.539192,0l0,0.007797c2.376328,-0.132553 4.425766,2.088547 6.000229,7.175674c1.43042,4.846588 1.788071,11.163422 1.78334,15.539871c0.008972,3.21138 -0.156799,5.357819 -0.156799,5.357819l-0.279007,3.534409l3.749954,0.033417c0.017532,0 8.665009,0.099075 17.146301,1.92363c8.150223,1.667557 14.525497,4.986938 15.118515,8.751892c0.021774,0.33078 0.030762,0.669403 0.021774,0.982452l0,89.365921l-0.004227,0z" id="svg_2"/>
  <path fill="#000000" stroke="#000" stroke-width="0" stroke-opacity="null" fill-opacity="null" d="m57.495659,67.688362c-0.177998,-0.008469 -0.369938,-0.015251 -0.527458,-0.016174c-0.008572,-0.000061 -0.017441,-0.000099 -0.026791,-0.000107l-1.03648,0c-0.01651,0 -0.03286,0.000313 -0.04446,0.0009c-0.011528,0.000572 -0.018379,0.001366 -0.018379,0.002182l0,0.128754c0,0.000816 0.006458,0.001579 0.018379,0.002174c0.011909,0.00058 0.027641,0.000885 0.04446,0.000885l1.874241,0c0.01659,0 0.032391,-0.000305 0.044308,-0.000885c0.01199,-0.000595 0.018612,-0.001358 0.018612,-0.002174l0,-0.085678c-0.003662,-0.009941 -0.16267,-0.02079 -0.346432,-0.029877zm0.220451,0.112457l-1.748501,0l0,-0.122589l0.973881,0l0,0.000008c0.042431,-0.000114 0.079109,0.00193 0.10714,0.00663c0.025539,0.004478 0.032001,0.010315 0.031849,0.014359c0.00024,0.00296 -0.002728,0.004951 -0.002728,0.004951l-0.004982,0.003265l0.066891,0.000031c0.000301,0 0.154789,0.000099 0.30624,0.001778c0.145538,0.001541 0.2593,0.004608 0.26989,0.008087c0.000469,0.000305 0.000549,0.000618 0.000469,0.000908l0,0.082573l-0.000149,0z" id="svg_3"/>
  <path fill="#000000" stroke="#000" stroke-width="0" stroke-opacity="null" fill-opacity="null" opacity="0.5" d="m113,52" id="svg_5"/>
  <path fill="#000000" stroke="#000" stroke-width="0" stroke-opacity="null" fill-opacity="null" opacity="0.5" d="m139,18" id="svg_6"/>
  <path stroke="#000" filter="url(#svg_7_blur)" id="svg_7" d="m137.412216,186.166412l-6.91774,-4.726059c-1.745361,-1.190552 -4.04512,-0.617462 -5.144775,1.27948l-2.726471,4.716721l13.233521,9.032959l2.728729,-4.713821c1.095688,-1.899857 0.573059,-4.401199 -1.173264,-5.589279l0,0zm-38.338577,42.017517l13.234451,9.033417l21.569763,-37.317612l-13.240654,-9.035233l-21.56356,37.319427l0,0zm-2.021431,11.476898l-0.292442,8.48468l6.907211,-3.970352l6.418274,-3.682999l-12.767479,-8.719803l-0.265564,7.888474l0,0l0,0z" stroke-width="4.5" fill="#fff"/>
  <text stroke="#000" transform="matrix(2.026647333412228,0,0,1,-192.3634216217775,0) " xml:space="preserve" text-anchor="left" font-family="Helvetica, Arial, sans-serif" font-size="24" id="svg_8" y="252" x="146.092039" fill-opacity="null" stroke-opacity="null" stroke-width="0" fill="#000000">...</text>
 </g>
</svg>